<svg xmlns="http://www.w3.org/2000/svg" viewBox="0 0 512 512" role="img" aria-label="Maybe Rain">
<title>Maybe Rain</title>
<!-- Full-bleed, no baked corners. The OS (iOS squircle / Android maskable) supplies the shape. -->
<!-- Grid scaled to 0.76 about center so all tile content stays inside the 80% maskable safe circle. -->
<rect width="512" height="512" fill="#EDEFEA"/>
<g transform="translate(256 256) scale(0.76) translate(-256 -256)">
<rect x="64" y="64" width="64" height="64" rx="13" fill="#E2E5DE" stroke="rgba(0,0,0,0.06)" stroke-width="1.5"/>
<rect x="144" y="64" width="64" height="64" rx="13" fill="#7E95C0"/>
<rect x="224" y="64" width="64" height="64" rx="13" fill="#AEC2E0"/>
<rect x="304" y="64" width="64" height="64" rx="13" fill="#E2E5DE" stroke="rgba(0,0,0,0.06)" stroke-width="1.5"/>
<rect x="384" y="64" width="64" height="64" rx="13" fill="#E9A100"/>
<rect x="64" y="144" width="64" height="64" rx="13" fill="#7E95C0"/>
<rect x="144" y="144" width="64" height="64" rx="13" fill="#7E95C0"/>
<rect x="224" y="144" width="64" height="64" rx="13" fill="#7E95C0"/>
<rect x="304" y="144" width="64" height="64" rx="13" fill="#C2D3ED"/>
<rect x="384" y="144" width="64" height="64" rx="13" fill="#E2E5DE" stroke="rgba(0,0,0,0.06)" stroke-width="1.5"/>
<rect x="64" y="224" width="64" height="64" rx="13" fill="#5E76A8"/>
<rect x="144" y="224" width="64" height="64" rx="13" fill="#6E84B0"/>
<rect x="224" y="224" width="64" height="64" rx="13" fill="#7E95C0"/>
<rect x="304" y="224" width="64" height="64" rx="13" fill="#7E95C0"/>
<rect x="384" y="224" width="64" height="64" rx="13" fill="#7E95C0"/>
<rect x="64" y="304" width="64" height="64" rx="13" fill="#D9E0EA" stroke="rgba(40,70,120,0.12)" stroke-width="1.5"/>
<rect x="144" y="304" width="64" height="64" rx="13" fill="#2C4EB8"/>
<rect x="224" y="304" width="64" height="64" rx="13" fill="#D9E0EA" stroke="rgba(40,70,120,0.12)" stroke-width="1.5"/>
<rect x="304" y="304" width="64" height="64" rx="13" fill="#2C4EB8"/>
<rect x="384" y="304" width="64" height="64" rx="13" fill="#D9E0EA" stroke="rgba(40,70,120,0.12)" stroke-width="1.5"/>
<rect x="64" y="384" width="64" height="64" rx="13" fill="#D9E0EA" stroke="rgba(40,70,120,0.12)" stroke-width="1.5"/>
<rect x="144" y="384" width="64" height="64" rx="13" fill="#21306B"/>
<rect x="224" y="384" width="64" height="64" rx="13" fill="#2C4EB8"/>
<rect x="304" y="384" width="64" height="64" rx="13" fill="#D9E0EA" stroke="rgba(40,70,120,0.12)" stroke-width="1.5"/>
<rect x="384" y="384" width="64" height="64" rx="13" fill="#2C4EB8"/>
</g>
</svg>
